<?xml version="1.0" encoding="utf-8"?>
<!-- Generator: Adobe Illustrator 27.1.1, SVG Export Plug-In . SVG Version: 6.00 Build 0)  -->
<svg version="1.1" id="Capa_1" xmlns="http://www.w3.org/2000/svg" xmlns:xlink="http://www.w3.org/1999/xlink" x="0px" y="0px"
	 viewBox="0 0 1366 607.1" style="enable-background:new 0 0 1366 607.1;" xml:space="preserve">
<style type="text/css">
	.st0{fill:#FFFFFF;}
	.st1{fill:#F2BD1D;}
</style>
<g>
	<path class="st0" d="M26.1,206.1c0.9,0,1.9,0,2.9,0c59.5,0,119.1,0,178.6,0c53.9,0,99.9,32,118.2,82.7c12.1,33.6,8.7,66.3-7.3,97.8
		c-10.5,20.7-24.4,38.6-44.8,50.3c-24.6,14.2-49.8,15.6-74.1-0.5c-21.1-14-30.4-34.6-29.2-59.8c0-0.3,0-0.6,0.1-0.9
		c0.3-0.9-0.1-2.2,0.8-2.5c0.9-0.3,1.6,0.9,2.3,1.4c18.8,14.7,43.4,16.4,64.1,4.5c19.9-11.5,31-35.4,27.1-58.3
		c-4-23.2-22.1-41.8-44.8-46.1c-4.1-0.8-8.3-1.1-12.5-1.1c-44.5,0-89,0-133.6,0c-1.7,0-3.1,0-4.3-1.8c-14.3-21.4-28.7-42.7-43-64
		C26.3,207.4,25.8,207,26.1,206.1z"/>
	<path class="st1" d="M313.9,558.7c-12.6,1.9-59.6-3.6-71.5-6.2c-49.8-11.1-125.3-63.8-148.2-123.4c-8-20.7-12.2-42.9-13.6-65.8
		c-1.4-22.7-2.5-45.4-4-68.1c-0.2-3.7,0.5-4.7,3.3-4.8c22.8-1.1,45.6-2.4,68.4-3.9c2.9-0.2,5-0.1,5.2,3.8
		c-0.6,32.1-6.8,66.7-3.2,99.3c5.1,45.2,10.4,52,21.7,74.8c21.8,43.6,108.8,82,137.9,92.2c0.9,0.3,1.8,0.6,2.8,0.9
		C312.9,557.6,313.1,557.8,313.9,558.7z"/>
	<polygon class="st0" points="160.2,47.5 160.6,193.5 84.7,193.5 84.7,47.5 	"/>
	<g>
		<path class="st0" d="M450.6,448.1H391V270.7h60.6c7.3,0,13.9,0.7,19.8,2c5.9,1.4,11.3,3.5,16.2,6.3c4.9,2.9,8.7,6.9,11.3,12
			c2.6,5.2,3.9,11.3,3.9,18.4c0,8.1-2.7,15.9-8.1,23.4c-5.4,7.5-12.6,13.5-21.5,17.9c15.2,3.2,27.2,9.3,35.9,18.4
			c8.7,9,13.1,19.5,13.1,31.3c0,14.5-6.4,26.1-19.1,34.7C490.1,443.8,472.7,448.1,450.6,448.1z M417.6,279.6v68.9h26.1
			c8.6,0,16.2-3.7,22.7-11.2c6.5-7.4,9.8-16.7,9.8-27.9c0-10.3-2.9-17.9-8.7-22.7c-5.8-4.8-13.7-7.2-23.7-7.2H417.6z M417.6,357.4
			v81.9h32.9c29.9,0,44.9-12.9,44.9-38.8c0-13.2-3.8-23.7-11.5-31.4c-7.7-7.8-18.8-11.7-33.3-11.7H417.6z"/>
		<path class="st0" d="M600.6,328.5c14,0,24.5,3.5,31.6,10.5c7,7,10.5,18.2,10.5,33.6v75.5h-19.8l-6.8-13.4c-7.8,12-18.5,18-32.2,18
			c-14.7,0-27-3.9-36.9-11.7c-9.9-7.8-14.8-17.2-14.8-28.4c0-11,5.3-20.4,16-28.3c10.6-7.9,23.4-11.8,38.3-11.8h29.4
			c-0.2-12.8-1.8-22-4.9-27.4c-3.1-5.4-8.2-8.1-15.1-8.1c-11.3,0-24.8,7.1-40.3,21.3l-4.6-4.8C568.3,336.8,584.9,328.5,600.6,328.5z
			 M616.1,414.1v-32.7h-26.4c-9.5,0-17,2.8-22.6,8.5c-5.6,5.7-8.4,13.2-8.4,22.7c0,9.1,2.7,16.6,8.1,22.3c5.4,5.7,11.6,8.6,18.5,8.6
			c7.1,0,13.6-2.7,19.6-8.2C611,429.8,614.7,422.7,616.1,414.1z"/>
		<path class="st0" d="M729.1,328.5c13.5,0,24.1,4,31.8,11.9c7.7,7.9,11.5,20.2,11.5,36.7v71h-26.6v-71c0-15-1.5-25.5-4.6-31.3
			c-3-5.8-8.9-8.7-17.5-8.7c-11.8,0-22.2,5.7-31.2,17v94H666V332.8h21.3l5.3,10.9C702.9,333.5,715.1,328.5,729.1,328.5z"/>
		<path class="st0" d="M847.9,383.5l52.7,64.6h-34.2L831,404.5l-8.6,10.4v33.2h-26.6V270.7h26.6V401l55.5-68.2h11.4L847.9,383.5z"/>
	</g>
	<g>
		<path class="st0" d="M932.3,370.3v77.8h-26.6V270.7h59.6c22.1,0,39.6,4.3,52.3,12.9c12.8,8.6,19.1,20.2,19.1,34.7
			c0,12.8-5,23.9-15.1,33.3c-10.1,9.4-23.7,15.2-40.9,17.6l63.9,78.8h-34.2l-63.1-77.8H932.3z M932.3,279.6v81.9h32.9
			c14.5,0,25.6-3.9,33.3-11.7c7.7-7.8,11.5-18.2,11.5-31.4c0-25.9-15-38.8-44.9-38.8H932.3z"/>
		<path class="st0" d="M1118.6,328.5c14,0,24.5,3.5,31.6,10.5c7,7,10.5,18.2,10.5,33.6v75.5h-19.8l-6.8-13.4
			c-7.8,12-18.5,18-32.2,18c-14.7,0-27-3.9-36.9-11.7c-9.9-7.8-14.8-17.2-14.8-28.4c0-11,5.3-20.4,16-28.3
			c10.6-7.9,23.4-11.8,38.3-11.8h29.4c-0.2-12.8-1.8-22-4.9-27.4c-3.1-5.4-8.2-8.1-15.1-8.1c-11.3,0-24.8,7.1-40.3,21.3l-4.6-4.8
			C1086.3,336.8,1102.9,328.5,1118.6,328.5z M1134.1,414.1v-32.7h-26.4c-9.5,0-17,2.8-22.6,8.5c-5.6,5.7-8.4,13.2-8.4,22.7
			c0,9.1,2.7,16.6,8.1,22.3c5.4,5.7,11.6,8.6,18.5,8.6c7.1,0,13.6-2.7,19.6-8.2C1129.1,429.8,1132.7,422.7,1134.1,414.1z"/>
		<path class="st0" d="M1218.2,274.2l-25.6,30.9h-8.9l7.9-30.9H1218.2z M1210.4,448.1h-26.6V332.8h26.6V448.1z"/>
		<path class="st0" d="M1334,332.8v8.9l-70.5,97.6h70.5v8.9h-109.5l76.5-106.4H1237v-8.9H1334z"/>
	</g>
	<g>
		<path class="st0" d="M1339.5,485.2c-305.3,3.7-619.2,3.6-924.6,0.4c0,0-29.8-0.4-29.8-0.4s29.8-0.4,29.8-0.4
			C720.3,481.6,1034.2,481.5,1339.5,485.2L1339.5,485.2z"/>
	</g>
</g>
</svg>
